<svg width="167" height="24" viewBox="0 0 167 24" fill="none" xmlns="http://www.w3.org/2000/svg">
<g id="Logo">
<g id="Group 9">
<path id="Fill 1" fill-rule="evenodd" clip-rule="evenodd" d="M11.7978 0C5.26512 0 0 5.29939 0 11.7986C0 12.9602 0.169569 14.0837 0.483272 15.1435C1.25905 14.1133 2.40364 13.4901 3.60334 13.2951C3.51008 12.8118 3.46345 12.3115 3.46345 11.7986C3.46345 7.19869 7.1982 3.46792 11.7638 3.46792C16.2659 3.4976 20.0642 7.19869 20.0982 11.7986C20.0982 16.3688 16.3337 20.0995 11.7638 20.0995C10.8355 20.0995 9.94098 19.9469 9.10585 19.6586C8.69889 20.9686 7.81289 21.9056 6.74461 22.4397C8.27497 23.1647 9.98761 23.5674 11.7978 23.5674C18.2965 23.5674 23.5658 18.302 23.5658 11.7986C23.5658 5.29939 18.2965 0 11.7978 0Z" fill="#563A1D"/>
<path id="Fill 3" fill-rule="evenodd" clip-rule="evenodd" d="M31.9298 12.9982V3.66706H37.9962C40.5312 3.66706 42.6635 5.56636 42.6635 8.33476C42.6635 11.0353 40.5312 12.9982 37.9962 12.9982H31.9298ZM41.2646 15.4995C44.2956 14.4312 46.0634 11.5992 46.0634 8.33476C46.0634 4.26483 43.1977 0.597656 38.1954 0.597656H28.4282V23.0671H31.9298V16.0676L37.5977 16.0337L42.494 23.0331H46.5636L41.2646 15.4995Z" fill="#563A1D"/>
<path id="Fill 5" fill-rule="evenodd" clip-rule="evenodd" d="M61.0619 20.2689C56.3606 20.2689 52.7954 16.3347 52.7954 11.8323C52.7954 7.69877 55.996 3.43382 61.0619 3.43382C64.3939 3.43382 66.2931 5.13386 67.4928 6.5329L69.8625 4.13334C67.8616 1.83128 65.263 0.101562 61.0619 0.101562C54.1265 0.101562 49.4634 5.69772 49.4634 11.8323C49.4634 17.8651 54.1265 23.6012 61.0619 23.6012C64.9281 23.6012 67.8616 22.1343 69.8625 19.5652L67.4631 17.1995C66.2295 19.0649 63.9615 20.2689 61.0619 20.2689Z" fill="#563A1D"/>
<path id="Fill 7" fill-rule="evenodd" clip-rule="evenodd" d="M78.4935 15.4656L82.826 7.33424L87.1924 15.4656H78.4935ZM82.826 0.597656L70.4263 23.0671H74.2585L76.6918 18.5647H88.9602L91.3935 23.0671H95.2257L82.826 0.597656Z" fill="#563A1D"/>
</g>
<path id="Fill 10" fill-rule="evenodd" clip-rule="evenodd" d="M115.035 0.597656V16.5679L97.4385 0.597656V23.0671H100.902V8.03376L118.537 23.9998V0.597656H115.035Z" fill="#563A1D"/>
<g id="Group 15">
<path id="Fill 11" fill-rule="evenodd" clip-rule="evenodd" d="M146.058 8.37304C145.384 9.57282 144.244 10.3359 143.006 10.6327C143.065 11.0143 143.095 11.4043 143.099 11.7986C143.099 16.3688 139.335 20.0995 134.769 20.0995C130.199 20.0995 126.469 16.3688 126.469 11.7986C126.469 7.19869 130.199 3.46792 134.769 3.46792C135.642 3.47216 136.49 3.6163 137.287 3.88339C137.851 2.56914 138.924 1.70004 140.136 1.28881C138.538 0.462107 136.723 0 134.803 0C128.266 0 123.001 5.29939 123.001 11.7986C123.001 18.302 128.266 23.5674 134.803 23.5674C141.302 23.5674 146.567 18.302 146.567 11.7986C146.567 10.6073 146.389 9.45835 146.058 8.37304Z" fill="#563A1D"/>
<path id="Fill 13" fill-rule="evenodd" clip-rule="evenodd" d="M152.934 6.63478C153.1 2.76835 159.632 2.0985 164.8 6.23203L166.432 3.36612C159.132 -2.00111 149.7 -0.233229 149.433 6.40161C149.068 14.6687 163.498 12.9686 163.464 17.1021C163.464 21.6342 155.965 21.1 150.832 17.4328L149.5 20.9007C159.433 26.1662 167 23.6691 167 16.8986C167 9.63211 152.701 11.5992 152.934 6.63478Z" fill="#563A1D"/>
</g>
<g id="Group 18">
<mask id="mask0_878_27255" style="mask-type:alpha" maskUnits="userSpaceOnUse" x="1" y="15" width="6" height="6">
<path id="Clip 17" fill-rule="evenodd" clip-rule="evenodd" d="M2.80634 16.2168C2.33155 16.6069 1.99241 17.2173 1.9585 18.1204C1.96274 18.1882 1.96697 18.256 1.97545 18.3239C2.09415 19.6678 2.95047 20.3037 3.84071 20.4902C4.03572 20.5326 4.23496 20.5538 4.42573 20.5538H4.42996C5.45586 20.5538 6.65132 20.0069 6.876 18.4977C6.89295 18.379 6.90567 18.2518 6.90991 18.1204C6.84208 16.3101 5.53216 15.6699 4.42573 15.6699C3.87463 15.6699 3.27266 15.831 2.80634 16.2168Z" fill="white"/>
</mask>
<g mask="url(#mask0_878_27255)">
<path id="Fill 16" fill-rule="evenodd" clip-rule="evenodd" d="M2.80634 16.2168C2.33155 16.6069 1.99241 17.2173 1.9585 18.1204C1.96274 18.1882 1.96697 18.256 1.97545 18.3239C2.09415 19.6678 2.95047 20.3037 3.84071 20.4902C4.03572 20.5326 4.23496 20.5538 4.42573 20.5538H4.42996C5.45586 20.5538 6.65132 20.0069 6.876 18.4977C6.89295 18.379 6.90567 18.2518 6.90991 18.1204C6.84208 16.3101 5.53216 15.6699 4.42573 15.6699C3.87463 15.6699 3.27266 15.831 2.80634 16.2168Z" fill="url(#paint0_linear_878_27255)"/>
</g>
</g>
<g id="Group 21">
<mask id="mask1_878_27255" style="mask-type:alpha" maskUnits="userSpaceOnUse" x="139" y="3" width="6" height="6">
<path id="Clip 20" fill-rule="evenodd" clip-rule="evenodd" d="M140.153 4.00588C139.869 4.24329 139.632 4.56126 139.483 4.97673C139.381 5.24382 139.322 5.5533 139.309 5.90942C139.373 7.70274 140.674 8.33866 141.777 8.3429H141.781C141.95 8.3429 142.12 8.33018 142.294 8.29627C143.252 8.12245 144.201 7.43141 144.261 5.90942C144.193 4.09915 142.883 3.45898 141.777 3.45898C141.225 3.45898 140.623 3.62009 140.153 4.00588Z" fill="white"/>
</mask>
<g mask="url(#mask1_878_27255)">
<path id="Fill 19" fill-rule="evenodd" clip-rule="evenodd" d="M140.153 4.00588C139.869 4.24329 139.632 4.56126 139.483 4.97673C139.381 5.24382 139.322 5.5533 139.309 5.90942C139.373 7.70274 140.674 8.33866 141.777 8.3429H141.781C141.95 8.3429 142.12 8.33018 142.294 8.29627C143.252 8.12245 144.201 7.43141 144.261 5.90942C144.193 4.09915 142.883 3.45898 141.777 3.45898C141.225 3.45898 140.623 3.62009 140.153 4.00588Z" fill="url(#paint1_linear_878_27255)"/>
</g>
</g>
</g>
<defs>
<linearGradient id="paint0_linear_878_27255" x1="1.40442" y1="16.3456" x2="2.61106" y2="21.1064" gradientUnits="userSpaceOnUse">
<stop stop-color="#B8904D"/>
<stop offset="1" stop-color="#90703D"/>
</linearGradient>
<linearGradient id="paint1_linear_878_27255" x1="138.755" y1="4.13479" x2="139.961" y2="8.89481" gradientUnits="userSpaceOnUse">
<stop stop-color="#B8904D"/>
<stop offset="1" stop-color="#90703D"/>
</linearGradient>
</defs>
</svg>
